<svg xmlns="http://www.w3.org/2000/svg" viewBox="0 0 44 44">
  <clipPath id="svgshape">
    <path
      d="M 22 8 C 22 5 27 0 34 0 C 41 0 44 5 44 13 C 44 24 32 34 22 44 C 12 34 0 24 0 13 C 0 6 3 0 10 0 C 17 0 22 5 22 8 Z "
    />
  </clipPath>
  <path d="M 0 0 L 0 44 L 44 44 L 44 0 L 0 0"
    fill="#FFF0C0" clip-path="url(#svgshape)" />
  <path
    d="M 22 23 C 7 23 7 1 22 1 C 37 1 37 23 22 23 M 22 24 C 35 24 37 27 37 44 L 7 44 C 7 27 9 24 22 24"
    fill="#C06600" clip-path="url(#svgshape)" />
  <path d="M 20 2 C 9 2 9 21 20 22 C 10 20 10 3 20 2 M 8 44 C 8 28 10 25 18 25 C 10 26 9 28 9 44"
    fill="#EEAA5D" clip-path="url(#svgshape)" />
  <path
    d="M 23 1 C 37 2 37 22 23 23 C 35 21 36 3 23 1 M 22 24 C 35 24 37 27 37 44 L 36 44 C 36 27 35 25 22 24"
    fill="#805000" clip-path="url(#svgshape)" />
  <path d="M 17 8 C 19 8 19 12 17 12 C 15 12 15 8 17 8 M 27 8 C 29 8 29 12 27 12 C 25 12 25 8 27 8"
    fill="#FFF0C0" clip-path="url(#svgshape)" />
</svg>